<svg id="svg" version="1.1" xmlns="http://www.w3.org/2000/svg" xmlns:xlink="http://www.w3.org/1999/xlink" width="400" height="300" viewBox="0, 0, 400,300"><g id="svgg"><path id="path0" d="M168.151 99.691 L 168.100 120.381 167.051 119.106 C 160.410 111.036,143.680 108.655,129.912 113.822 C 92.237 127.960,89.569 182.941,125.700 200.616 C 142.368 208.770,159.749 205.939,175.400 192.520 C 176.115 191.907,176.747 191.404,176.803 191.403 C 176.860 191.401,178.885 194.145,181.303 197.499 L 185.700 203.599 188.350 203.599 L 191.000 203.600 191.000 141.300 L 191.000 79.000 179.601 79.000 L 168.202 79.000 168.151 99.691 M249.500 111.515 C 241.135 112.659,231.071 117.717,223.976 124.344 L 223.051 125.207 218.488 119.803 L 213.925 114.400 211.262 114.400 L 208.600 114.400 208.600 176.000 L 208.600 237.600 219.999 237.600 L 231.398 237.600 231.449 217.616 L 231.500 197.632 234.200 199.109 C 242.677 203.747,247.881 205.302,254.900 205.296 C 283.991 205.270,303.670 180.606,299.098 149.900 C 295.454 125.418,273.284 108.261,249.500 111.515 M151.055 134.672 C 163.667 138.474,171.264 153.116,167.084 165.567 C 161.314 182.754,141.792 188.022,129.919 175.595 C 118.729 163.882,121.570 143.103,135.300 136.251 C 139.853 133.978,146.533 133.309,151.055 134.672 M260.255 134.661 C 272.172 137.821,279.097 150.130,276.504 163.545 C 274.001 176.498,262.211 184.600,249.634 182.011 C 227.038 177.360,224.863 142.573,246.700 135.100 C 250.396 133.835,256.406 133.641,260.255 134.661 " stroke="none" fill="#342c24" fill-rule="evenodd"></path><path id="path1" d="M0.000 150.000 L 0.000 300.000 200.000 300.000 L 400.000 300.000 400.000 150.000 L 400.000 0.000 200.000 0.000 L 0.000 0.000 0.000 150.000 M191.200 141.205 L 191.200 203.611 188.359 203.555 L 185.518 203.500 181.259 197.600 C 176.478 190.976,176.818 191.311,175.832 192.255 C 165.643 202.005,151.095 206.808,138.100 204.710 C 103.421 199.113,87.991 156.256,110.400 127.772 C 124.430 109.939,153.981 105.118,166.659 118.595 L 168.200 120.233 168.200 99.517 L 168.200 78.800 179.700 78.800 L 191.200 78.800 191.200 141.205 M257.100 111.199 C 284.924 112.895,303.324 136.876,299.301 166.200 C 296.519 186.474,282.599 201.308,263.100 204.777 C 252.620 206.642,245.313 205.253,234.403 199.323 C 232.862 198.485,231.556 197.800,231.501 197.800 C 231.445 197.800,231.400 206.755,231.400 217.700 L 231.400 237.600 219.900 237.600 L 208.400 237.600 208.400 176.000 L 208.400 114.400 211.250 114.407 L 214.100 114.415 218.560 119.715 L 223.021 125.016 223.860 124.293 C 233.333 116.134,242.872 111.675,252.000 111.139 C 252.605 111.103,253.280 111.058,253.500 111.039 C 253.720 111.019,255.340 111.091,257.100 111.199 M142.500 134.209 C 118.177 137.408,116.206 174.800,140.000 181.628 C 150.901 184.756,162.836 177.750,166.885 165.845 C 172.413 149.590,158.896 132.052,142.500 134.209 M251.035 134.201 C 237.570 136.101,229.276 148.952,232.096 163.545 C 237.006 188.956,272.301 188.385,276.510 162.827 C 279.313 145.810,266.980 131.950,251.035 134.201 " stroke="none" fill="#fbfbfb" fill-rule="evenodd"></path><path id="path2" d="M253.554 111.145 C 253.913 111.189,254.453 111.189,254.754 111.143 C 255.054 111.097,254.760 111.061,254.100 111.062 C 253.440 111.063,253.194 111.100,253.554 111.145 M113.491 124.250 L 112.700 125.100 113.550 124.309 C 114.340 123.574,114.492 123.400,114.341 123.400 C 114.308 123.400,113.925 123.783,113.491 124.250 M285.800 123.463 C 285.800 123.497,286.093 123.790,286.450 124.113 L 287.100 124.700 286.513 124.050 C 285.965 123.444,285.800 123.308,285.800 123.463 M276.869 158.100 C 276.869 158.980,276.904 159.315,276.947 158.845 C 276.989 158.374,276.988 157.654,276.945 157.245 C 276.902 156.835,276.868 157.220,276.869 158.100 M123.050 158.100 C 123.053 158.540,123.094 158.696,123.141 158.448 C 123.189 158.199,123.187 157.839,123.137 157.648 C 123.087 157.456,123.048 157.660,123.050 158.100 M269.891 176.050 L 269.100 176.900 269.950 176.109 C 270.740 175.374,270.892 175.200,270.741 175.200 C 270.708 175.200,270.325 175.583,269.891 176.050 M145.350 205.341 C 145.597 205.389,146.003 205.389,146.250 205.341 C 146.498 205.293,146.295 205.254,145.800 205.254 C 145.305 205.254,145.103 205.293,145.350 205.341 M255.752 205.541 C 256.001 205.589,256.361 205.587,256.552 205.537 C 256.744 205.487,256.540 205.448,256.100 205.450 C 255.660 205.453,255.504 205.494,255.752 205.541 " stroke="none" fill="#aeaaa6" fill-rule="evenodd"></path><path id="path3" d="M173.936 78.950 C 177.035 78.981,182.165 78.981,185.336 78.950 C 188.506 78.919,185.970 78.894,179.700 78.894 C 173.430 78.894,170.836 78.919,173.936 78.950 M253.850 205.543 C 254.153 205.589,254.648 205.589,254.950 205.543 C 255.253 205.497,255.005 205.460,254.400 205.460 C 253.795 205.460,253.548 205.497,253.850 205.543 " stroke="none" fill="#948c8c" fill-rule="evenodd"></path><path id="path4" d="M191.099 141.300 C 191.099 175.620,191.122 189.630,191.150 172.434 C 191.178 155.237,191.178 127.157,191.150 110.034 C 191.122 92.910,191.099 106.980,191.099 141.300 M208.499 176.000 C 208.499 209.935,208.522 223.818,208.550 206.850 C 208.578 189.883,208.578 162.118,208.550 145.150 C 208.522 128.183,208.499 142.065,208.499 176.000 M238.291 140.250 L 237.500 141.100 238.350 140.309 C 239.140 139.574,239.292 139.400,239.141 139.400 C 239.108 139.400,238.725 139.782,238.291 140.250 M129.687 140.250 L 129.100 140.900 129.750 140.313 C 130.108 139.990,130.400 139.697,130.400 139.663 C 130.400 139.508,130.235 139.644,129.687 140.250 M160.700 140.600 C 161.242 141.150,161.730 141.600,161.785 141.600 C 161.840 141.600,161.442 141.150,160.900 140.600 C 160.358 140.050,159.870 139.600,159.815 139.600 C 159.760 139.600,160.158 140.050,160.700 140.600 M100.046 155.800 C 100.046 156.185,100.088 156.343,100.138 156.150 C 100.188 155.958,100.188 155.643,100.138 155.450 C 100.088 155.258,100.046 155.415,100.046 155.800 M299.660 156.400 C 299.660 157.005,299.697 157.253,299.743 156.950 C 299.789 156.648,299.789 156.153,299.743 155.850 C 299.697 155.548,299.660 155.795,299.660 156.400 M299.660 160.000 C 299.660 160.605,299.697 160.853,299.743 160.550 C 299.789 160.248,299.789 159.753,299.743 159.450 C 299.697 159.148,299.660 159.395,299.660 160.000 M100.046 160.600 C 100.046 160.985,100.088 161.143,100.138 160.950 C 100.188 160.758,100.188 160.442,100.138 160.250 C 100.088 160.058,100.046 160.215,100.046 160.600 M160.600 175.900 C 160.114 176.395,159.762 176.800,159.817 176.800 C 159.872 176.800,160.314 176.395,160.800 175.900 C 161.286 175.405,161.638 175.000,161.583 175.000 C 161.528 175.000,161.086 175.405,160.600 175.900 M237.800 175.463 C 237.800 175.497,238.093 175.790,238.450 176.113 L 239.100 176.700 238.513 176.050 C 237.965 175.444,237.800 175.308,237.800 175.463 " stroke="none" fill="#8f8c84" fill-rule="evenodd"></path></g></svg>